<?xml version="1.0" encoding="UTF-8"?>
<svg id="Layer_2" data-name="Layer 2" xmlns="http://www.w3.org/2000/svg" viewBox="0 0 811 454.91">
  <defs>
    <style>
      .cls-1 {
        fill: #050552;
        font-size: 179.22px;
      }

      .cls-1, .cls-2 {
        font-family: AvantGarde-Demi, AvantGarde-Demi;
        font-weight: 300;
      }

      .cls-2 {
        font-size: 139.84px;
      }

      .cls-2, .cls-3 {
        fill: #e99c00;
      }
    </style>
  </defs>
  <path class="cls-3" d="M126.36,.27C59.36,4.47,4.77,58.83,.31,125.81c-5.19,77.95,55.8,142.87,132.3,144.24,0,0,0,0,0,0v140.75s0,0,0,0h11.38s0,0,0,0v-141.01s0,0,0,0c70.43-4.6,126.14-63.15,126.14-134.73C270.12,57.59,204.89-4.65,126.36,.27Zm6.24,259.95h0s0,0,0,0c-68.06-1.32-122.85-56.79-122.85-125.17S65.43,10.24,134.26,9.8v-.04h9.72s0,0,0,0V55.34s0,0,0,0L184.02,15.3l4.7,4.7-44.74,44.74s0,0,0,0v39.68s0,0,0,0L214.16,34.26l4.7,4.7-74.87,74.87s0,0,0,0v37.06s0,0,0,0L233.3,61.58l4.7,4.7-94.01,94.01s0,0,0,0v37.7s0,0,0,0l105.31-105.31,4.7,4.7-110.02,110.02s0,0,0,0v38.31s0,0,0,0l115.64-113.87,5.82,5.73-112.8,111.07c-5.59,5.5-12.49,9.49-20.04,11.58Z"/>
  <text class="cls-1" transform="translate(222.28 409.92)"><tspan x="0" y="0">Daat</tspan></text>
  <text class="cls-2" transform="translate(629.21 409.92)"><tspan x="0" y="0">.AI</tspan></text>
</svg>