<?xml version="1.0" encoding="UTF-8"?>
<svg id="Layer_2" data-name="Layer 2" xmlns="http://www.w3.org/2000/svg" viewBox="0 0 420.14 638.96">
  <defs>
    <style>
      .cls-1 {
        fill: #e99c00;
      }
    </style>
  </defs>
  <g id="Layer_2-2" data-name="Layer 2">
    <path class="cls-1" d="M196.54,.42C92.33,6.95,7.42,91.5,.48,195.69c-8.08,121.24,86.78,222.21,205.77,224.35,0,0,0,0,0,0v218.93s0,0,0,0h17.7s0,0,0,0v-219.32s0,0,0,0c109.54-7.15,196.19-98.22,196.19-209.56C420.14,89.57,318.69-7.23,196.54,.42Zm9.71,404.33h0s0,0,0,0c-105.85-2.06-191.07-88.34-191.07-194.68S101.77,15.92,208.83,15.24v-.06h15.12s0,0,0,0V86.07s0,0,0,0l62.27-62.27,7.32,7.32-69.59,69.59s0,0,0,0v61.72s0,0,0,0l109.14-109.14,7.32,7.32-116.46,116.46s0,0,0,0v57.64s0,0,0,0L362.86,95.79l7.32,7.32L223.95,249.33s0,0,0,0v58.63s0,0,0,0l163.8-163.8,7.32,7.32-171.12,171.12s0,0,0,0v59.59s0,0,0,0l179.87-177.11,9.05,8.91-175.45,172.76c-8.69,8.56-19.42,14.76-31.17,18.01Z"/>
  </g>
</svg>